<svg width="3788" height="1723" viewBox="0 0 3788 1723" fill="none" xmlns="http://www.w3.org/2000/svg">
<path d="M352.532 359.223C454.377 903.349 1538.25 1447.82 1745.49 1370.81C1952.73 1293.79 1859.47 691.514 1831.35 553.925C1803.22 416.336 897.282 459.603 909.124 302.111C920.966 144.619 1831.35 235.479 2359.81 198.27C2888.28 161.06 3287.96 184.424 3333.85 325.475C3379.74 466.525 3138.45 767.664 2966.74 855.063C2795.02 942.463 2451.59 821.315 2244.35 821.315C2037.11 821.315 1069 767.664 1069 767.664C1069 767.664 -13.1013 821.315 3.18195 590.269C19.4652 359.223 593.821 326.34 777.378 416.336C960.935 506.331 111.244 1035.05 352.532 1213.31C593.821 1391.57 1110.44 1351.77 1288.08 1465.13C1465.72 1578.49 2438.24 1702.58 2675.12 1518.78C2912 1334.98 2577.42 1130.24 2204.38 1130.24C1831.35 1130.24 1790.51 942.463 1288.08 921.694C785.648 900.926 2060.8 767.664 2176.26 570.366C2291.72 373.069 1368.02 590.269 1172.62 553.925C977.218 517.58 977.218 416.336 1465.72 124.716C1954.21 -166.904 3470.04 145.484 3671.36 235.479C3872.68 325.475 3776.46 694.11 3615.11 797.951C3453.76 901.792 3499.65 1247.93 3138.45 1230.62C2777.26 1213.31 2565.58 921.694 2359.81 1016.02C2154.05 1110.34 2244.35 1723 2244.35 1723" stroke="url(#paint0_linear_70_150)" stroke-width="6"/>
<defs>
<linearGradient id="paint0_linear_70_150" x1="3792.61" y1="620.616" x2="35.2732" y2="601.355" gradientUnits="userSpaceOnUse">
<stop stop-color="#56C7F5" stop-opacity="0"/>
<stop offset="0.515625" stop-color="#F5A956" stop-opacity="0.5"/>
<stop offset="1" stop-color="#F5A956" stop-opacity="0"/>
</linearGradient>
</defs>
</svg>
